<svg width="58" height="58" viewBox="0 0 58 58" fill="none" xmlns="http://www.w3.org/2000/svg">
<g clip-path="url(#clip0_2027_1583)">
<path d="M55.5778 45.776C55.5716 43.8589 54.3901 42.6574 52.4822 42.6253C52.1466 42.6191 51.8125 42.6253 51.4417 42.6253C51.4417 41.8253 51.4601 41.1189 51.4386 40.4124C51.3696 38.1812 49.3024 36.5874 47.1539 37.1697C46.5179 37.3414 45.9494 37.7628 45.4712 38.008C44.5962 37.6187 43.7426 37.2387 42.889 36.8586L42.768 36.9904V36.2564C42.768 24.6358 42.7588 13.0152 42.7833 1.3946C42.7864 0.315754 42.4814 -0.462732 41.4685 -0.897949H3.84366C2.84296 -0.412161 2.55793 0.396974 2.56406 1.48502C2.59931 7.82478 2.58092 14.1661 2.58245 20.5058C2.58245 20.6775 2.57325 20.8522 2.58858 21.0223C2.63302 21.5157 2.98548 21.8559 3.44215 21.8575C3.89883 21.8575 4.25282 21.5188 4.29879 21.0253C4.31412 20.8537 4.30493 20.6805 4.30493 20.5089C4.30493 14.1875 4.30493 7.86615 4.30493 1.54478V0.858243H41.0486C41.0486 1.11416 41.0486 1.3379 41.0486 1.56317C41.0486 8.40098 41.0486 15.2403 41.0486 22.0781C41.0486 27.0387 41.0501 32.0008 41.0409 36.9613C41.0409 37.1897 41.0118 37.5237 40.8662 37.6295C39.6556 38.5168 39.3108 39.7351 39.3705 41.1618C39.4134 42.1701 39.3782 43.1815 39.3782 44.2236H23.8023C23.8023 42.9118 23.8299 41.6338 23.7962 40.3557C23.741 38.2379 21.7366 36.6426 19.6877 37.1391C18.995 37.3077 18.3652 37.7367 17.6587 38.0677C16.5753 37.0579 15.2405 36.6763 13.7479 37.372C12.2599 38.0662 11.676 39.3228 11.7435 40.9288C11.7664 41.4744 11.7465 42.023 11.7465 42.6237C11.4002 42.6237 11.1366 42.6237 10.8715 42.6237C8.7567 42.6345 7.61503 43.7792 7.61196 45.8925C7.61196 46.9023 7.61196 47.9122 7.61196 48.9528H4.30339V48.2248C4.30339 40.5626 4.30339 32.9003 4.30339 25.238C4.30339 24.5117 3.9969 24.1286 3.43755 24.1316C2.89353 24.1347 2.58551 24.5086 2.58551 25.1921C2.58398 33.0643 2.58244 40.938 2.58551 48.8102C2.58551 50.0347 3.29197 50.7197 4.521 50.7197C5.51556 50.7197 6.51013 50.6982 7.50316 50.7197C7.69165 50.7243 7.9491 50.8407 8.05178 50.9894C8.69234 51.9181 9.56277 52.364 10.6799 52.3502C11.0186 52.3456 11.3557 52.3502 11.7526 52.3502C11.7526 53.1517 11.7389 53.875 11.7557 54.5983C11.7818 55.7032 12.2461 56.612 13.1411 57.2403C13.5839 57.5514 14.1295 57.7138 14.6291 57.9437H15.7769C16.4634 57.6065 17.15 57.2694 17.7721 56.9644C18.4142 57.2755 19.1023 57.6096 19.7919 57.9437H20.9397C21.3749 57.7552 21.8439 57.6203 22.2362 57.3675C23.2568 56.7131 23.7824 55.7431 23.8023 54.5294C23.8238 53.2881 23.8069 52.0453 23.8069 50.7243C24.0552 50.7243 24.2575 50.7243 24.4613 50.7243C26.124 50.7243 27.7867 50.7273 29.4494 50.7228C30.136 50.7212 30.5252 50.4193 30.5436 49.8968C30.5635 49.3573 30.1421 49.0049 29.4479 49.0033C27.5952 48.9987 25.744 49.0018 23.8498 49.0018V46.0227H39.3338V48.9696C39.1422 48.9804 38.9399 48.9987 38.7392 49.0003C37.0765 49.0033 35.4122 48.9758 33.751 49.0233C33.4246 49.0325 32.9879 49.2455 32.8101 49.506C32.4362 50.0577 32.9143 50.7136 33.6606 50.7197C35.3233 50.7335 36.986 50.7243 38.6487 50.7243C38.8572 50.7243 39.0671 50.7243 39.3797 50.7243C39.3797 51.0124 39.3797 51.2714 39.3797 51.5288C39.3797 52.4667 39.3736 53.4061 39.3813 54.3439C39.3966 56.1093 40.2823 57.297 41.9696 57.8364C42.037 57.8579 42.0952 57.9084 42.1581 57.9452H43.4193C44.1028 57.605 44.7878 57.2648 45.387 56.9675C46.0551 57.2862 46.7447 57.6157 47.4343 57.9452H48.5821C48.6312 57.9161 48.6756 57.8747 48.7277 57.8594C50.5437 57.3169 51.4401 56.1231 51.4463 54.2336C51.4478 53.6268 51.4463 53.0199 51.4463 52.3502C51.8478 52.3502 52.1864 52.3548 52.5266 52.3502C54.3625 52.3226 55.5686 51.1089 55.5793 49.2746C55.5854 48.1069 55.5839 46.9391 55.5793 45.7714L55.5778 45.776ZM11.7205 50.594C11.2102 50.594 10.7136 50.6553 10.2386 50.5772C9.69763 50.4883 9.35895 50.0898 9.34823 49.5305C9.32371 48.1727 9.32371 46.815 9.34823 45.4588C9.35895 44.8565 9.79877 44.4244 10.4026 44.3738C10.8179 44.3386 11.2377 44.3677 11.7205 44.3677V50.594ZM16.9155 54.347C16.9155 55.3247 16.3332 56.0542 15.4612 56.2043C14.6812 56.3392 13.8736 55.8856 13.5916 55.1102C13.4966 54.8496 13.4736 54.5508 13.4721 54.2688C13.4629 52.0115 13.4675 49.7542 13.4675 47.4969C13.4675 45.2396 13.4659 42.9823 13.4675 40.725C13.469 39.5542 14.1509 38.7727 15.1685 38.7619C16.1983 38.7512 16.9155 39.5588 16.917 40.7465C16.9186 45.2795 16.9201 49.814 16.917 54.347H16.9155ZM22.0783 54.4941C22.0737 55.3768 21.4393 56.0848 20.6026 56.2105C19.7781 56.3346 18.9567 55.8059 18.7146 54.9707C18.6518 54.7546 18.641 54.5186 18.6395 54.2918C18.6349 49.7588 18.6349 45.2258 18.638 40.6928C18.638 39.545 19.3582 38.7528 20.3742 38.7619C21.3887 38.7711 22.0814 39.5619 22.0829 40.7235C22.086 42.9808 22.0829 45.2381 22.0829 47.4939H22.0814C22.0814 49.8278 22.0906 52.1617 22.0768 54.4941H22.0783ZM44.5472 54.396C44.5426 55.3354 43.9434 56.0557 43.0959 56.2043C42.3144 56.3423 41.5114 55.8871 41.2202 55.1117C41.1359 54.8849 41.1037 54.6274 41.1022 54.3838C41.0961 49.7864 41.0976 45.1891 41.0976 40.5917C41.0976 39.3473 41.87 38.8754 42.8262 38.7788C43.761 38.6853 44.541 39.5496 44.5472 40.604C44.5594 42.9026 44.5502 45.2013 44.5502 47.5C44.5502 49.7987 44.5579 52.0974 44.5472 54.396ZM49.7207 54.3485C49.7207 55.3262 49.1369 56.0542 48.2649 56.2043C47.4849 56.3392 46.6773 55.8856 46.3968 55.1086C46.3018 54.8481 46.2788 54.5493 46.2773 54.2673C46.2681 52.01 46.2727 49.7527 46.2727 47.4954C46.2727 45.2381 46.2712 42.9808 46.2727 40.7235C46.2742 39.5527 46.9577 38.7711 47.9753 38.7619C49.0066 38.7528 49.7223 39.5604 49.7223 40.748C49.7238 45.281 49.7253 49.8155 49.7223 54.3485H49.7207ZM53.8476 49.4416C53.8354 50.1266 53.3726 50.5787 52.6906 50.6201C52.2968 50.6431 51.8999 50.6247 51.4739 50.6247V44.3784C51.955 44.3784 52.4117 44.3401 52.8577 44.3876C53.4277 44.4474 53.8369 44.927 53.8461 45.5431C53.866 46.8426 53.8675 48.1436 53.8461 49.4432L53.8476 49.4416Z" fill="white"/>
<path d="M20.4923 13.242C20.6792 13.2711 20.8738 13.2589 21.0639 13.2589C23.4698 13.2589 25.8742 13.2589 28.2802 13.2589C30.6861 13.2589 33.1672 13.2589 35.6114 13.2589C35.7831 13.2589 35.9562 13.2665 36.1263 13.2482C36.5861 13.1976 36.8619 12.9386 36.8956 12.4727C36.9324 11.9778 36.6734 11.6743 36.203 11.5671C36.0206 11.5257 35.8229 11.5364 35.6329 11.5364C30.7643 11.5364 25.8957 11.5349 21.0286 11.5364C20.8018 11.5364 20.5643 11.5395 20.3513 11.6023C19.9314 11.7264 19.7368 12.0421 19.772 12.4773C19.8072 12.9156 20.0632 13.1746 20.4923 13.2405V13.242Z" fill="white"/>
<path d="M36.8696 24.5376C36.7624 24.251 36.4406 24.0227 36.1724 23.8265C36.059 23.7438 35.8383 23.8051 35.6667 23.8051C33.2224 23.8051 30.7797 23.8051 28.3354 23.8051C25.8911 23.8051 23.4484 23.8051 21.0041 23.8051C20.8509 23.8051 20.6977 23.7959 20.5459 23.8127C20.0877 23.8648 19.8134 24.1223 19.7736 24.5866C19.7337 25.054 19.9728 25.359 20.408 25.4831C20.6042 25.5398 20.8233 25.5275 21.0333 25.5275C25.9019 25.5291 30.7705 25.5306 35.6391 25.526C35.8827 25.526 36.1417 25.5168 36.3685 25.4386C36.7823 25.2946 37.0168 24.9329 36.8696 24.5391V24.5376Z" fill="white"/>
<path d="M19.7766 16.5826C19.8455 17.0637 20.1765 17.2967 20.8416 17.2982C23.3426 17.3028 25.8436 17.2997 28.3445 17.2997C30.7505 17.2997 33.1549 17.2997 35.5608 17.2997C36.5217 17.2997 36.9002 17.0591 36.9033 16.4492C36.9063 15.8378 36.5079 15.5757 35.5716 15.5757C30.7413 15.5757 25.9125 15.5757 21.0822 15.5757C20.8738 15.5757 20.6593 15.5727 20.4555 15.614C19.9681 15.7121 19.7076 16.0983 19.7766 16.581V16.5826Z" fill="white"/>
<path d="M36.1262 27.8444C35.996 27.8245 35.8596 27.8352 35.7263 27.8352C30.801 27.8352 25.8741 27.8352 20.9488 27.8352C20.7956 27.8352 20.6393 27.8183 20.4922 27.849C20.0508 27.9425 19.7796 28.2076 19.7704 28.678C19.7612 29.1485 20.0217 29.4289 20.46 29.5332C20.6423 29.5761 20.84 29.5561 21.0301 29.5561C23.4544 29.5561 25.8803 29.5561 28.3046 29.5561C30.729 29.5561 33.1931 29.5561 35.6359 29.5561C35.8075 29.5561 35.9837 29.573 36.1508 29.5423C36.6212 29.455 36.9078 29.1776 36.9001 28.6811C36.8925 28.1846 36.6013 27.9164 36.1262 27.8413V27.8444Z" fill="white"/>
<path d="M8.89148 27.5932C9.36194 28.1449 9.84773 28.6859 10.3473 29.2115C10.8009 29.6896 11.2928 29.682 11.7265 29.1931C12.056 28.8223 12.3548 28.4254 12.6659 28.0377C13.7202 26.7289 14.7807 25.4264 15.8243 24.1084C16.3239 23.4771 16.0894 22.6649 15.3799 22.6358C15.0795 22.6235 14.678 22.8365 14.4757 23.0771C13.308 24.464 12.1863 25.8892 11.0001 27.3618C10.6875 27.0201 10.4285 26.7136 10.1466 26.4332C9.75425 26.0439 9.28685 26.0255 8.92213 26.3612C8.5712 26.6845 8.54208 27.1795 8.89301 27.5917L8.89148 27.5932Z" fill="white"/>
<path d="M10.2264 16.8308C10.8317 17.4867 11.3083 17.4713 11.8784 16.768C13.1779 15.1619 14.4713 13.5498 15.7662 11.9407C15.8505 11.8365 15.9363 11.7308 15.9976 11.6143C16.2183 11.1975 16.1325 10.8205 15.7754 10.5385C15.4153 10.255 15.0245 10.2734 14.6797 10.5845C14.5111 10.7377 14.3747 10.9262 14.2307 11.1055C13.1626 12.428 12.0975 13.7521 11.0018 15.1129C10.729 14.8171 10.4884 14.549 10.2402 14.2884C9.81109 13.8394 9.30539 13.772 8.92994 14.1061C8.53763 14.4555 8.55908 14.9796 8.99583 15.47C9.40193 15.9282 9.81263 16.3833 10.2264 16.8323V16.8308Z" fill="white"/>
</g>
<defs>
<clipPath id="clip0_2027_1583">
<rect width="58" height="58" fill="white"/>
</clipPath>
</defs>
</svg>
