<svg width="59" height="59" viewBox="0 0 59 59" fill="none" xmlns="http://www.w3.org/2000/svg">
<path d="M50.1217 23.9748C46.4299 15.1308 39.5753 10.3375 30.0215 9.68757C24.7741 9.33131 19.9102 10.7985 15.699 13.9709C8.44182 19.4385 5.34831 26.7909 6.47557 35.813C7.09019 40.7313 9.29303 44.9643 12.7686 48.497C16.1259 51.9087 20.1645 54.0667 24.8761 54.9301C25.7736 55.0947 26.6819 55.1966 27.5848 55.3272H30.4349C30.9013 55.2633 31.369 55.1953 31.8368 55.1368C36.6654 54.5317 40.8861 52.5777 44.4406 49.268C51.4815 42.7112 53.8258 32.8528 50.1217 23.9761V23.9748ZM29.0044 50.965C18.7979 50.9555 10.5141 42.6309 10.5631 32.4312C10.612 22.1921 18.87 13.9573 29.0438 13.9981C39.2667 14.0402 47.477 22.29 47.4552 32.5006C47.4348 42.7288 39.1946 50.9745 29.0044 50.965Z" fill="white"/>
<path d="M19.2126 7.12414C19.6151 7.33355 20.1114 7.45457 20.567 7.45729C26.1951 7.47904 31.8246 7.47224 37.4541 7.46952C37.673 7.46952 37.8946 7.45049 38.1108 7.41105C39.0491 7.237 39.7167 6.50952 39.8514 5.53048C39.9737 4.63982 39.4638 3.72197 38.6235 3.3222C38.4739 3.25149 38.323 3.18214 38.172 3.11279H19.8504C19.6994 3.18214 19.5471 3.24741 19.3989 3.3222C18.6198 3.71653 18.1874 4.35971 18.1602 5.22589C18.1343 6.04856 18.477 6.7434 19.214 7.1255L19.2126 7.12414Z" fill="white"/>
<path d="M31.5091 32.9767C31.3228 32.7863 31.1909 32.4559 31.1881 32.1894C31.1609 30.2517 31.1732 28.314 31.1732 26.3763H31.1691C31.1691 24.4046 31.1868 22.433 31.1623 20.4613C31.1474 19.2552 30.1806 18.3332 29.0071 18.3359C27.8336 18.3373 26.8613 19.262 26.8573 20.4681C26.8409 24.8534 26.8341 29.2387 26.8749 33.6226C26.879 34.0876 27.0938 34.6655 27.4134 34.996C29.6081 37.2668 31.849 39.4927 34.0913 41.7173C34.6366 42.2585 35.3341 42.4067 36.0739 42.2191C37.7341 41.7976 38.2672 39.7933 37.0379 38.5436C35.2049 36.6794 33.3407 34.845 31.5104 32.978L31.5091 32.9767Z" fill="white"/>
</svg>
