<svg width="39" height="34" viewBox="0 0 39 34" fill="none" xmlns="http://www.w3.org/2000/svg">
<path d="M38.3424 9.01299C37.868 7.20875 36.7818 6.36704 34.9245 6.36606C33.5259 6.36606 32.1273 6.36311 30.7287 6.36606C28.7093 6.37097 27.3893 7.69001 27.3883 9.71131C27.3854 16.3861 27.3883 23.0619 27.3883 29.7367C27.3883 29.8594 27.3903 29.9822 27.3962 30.105C27.4669 31.7285 28.7928 33.0554 30.4212 33.0819C32.0644 33.1075 33.7095 33.1035 35.3527 33.0819C36.6089 33.0652 37.7295 32.2402 38.1686 31.0616C38.253 30.8347 38.312 30.598 38.3827 30.3653V9.07388C38.3689 9.05424 38.3483 9.03558 38.3424 9.01299ZM35.2142 29.9213H30.545V9.53648H35.2142V29.9213Z" fill="white"/>
<path d="M8.54162 20.521C6.96033 20.4857 5.3771 20.4916 3.79483 20.5201C2.40998 20.5446 1.28343 21.3746 0.845387 22.6239C0.776635 22.8193 0.725556 23.0207 0.666626 23.2191V30.4389C0.688234 30.4802 0.719653 30.5195 0.730457 30.5637C1.11645 32.1361 2.3039 33.0849 3.90875 33.0898C5.41736 33.0947 6.92597 33.0957 8.43457 33.0898C10.2928 33.082 11.6413 31.755 11.6551 29.8929C11.6708 27.8323 11.6718 25.7707 11.6551 23.7101C11.6404 21.8941 10.3498 20.5623 8.53965 20.521H8.54162ZM8.50725 29.9155H3.83312V23.6895H8.50725V29.9155Z" fill="white"/>
<path d="M21.7448 14.2315C20.2962 14.2286 18.8475 14.2306 17.3988 14.2315C15.3401 14.2325 14.0211 15.5535 14.0191 17.62C14.0172 19.6334 14.0191 21.6469 14.0191 23.6603C14.0191 25.6983 14.0191 27.7363 14.0191 29.7743C14.0191 29.7988 14.0191 29.8234 14.0191 29.848C14.0456 31.7465 15.3922 33.0842 17.2878 33.0901C18.7728 33.094 20.2588 33.094 21.7439 33.0901C23.664 33.0862 25.0223 31.7524 25.0272 29.8303C25.038 25.717 25.038 21.6037 25.0272 17.4913C25.0223 15.5683 23.665 14.2355 21.7439 14.2315H21.7448ZM21.8558 29.9157H17.1896V17.4H21.8558V29.9157Z" fill="white"/>
<path d="M9.80953 12.6247C10.4057 12.7396 10.885 12.5245 11.3024 12.1061C13.4082 9.99547 15.5179 7.88774 17.6266 5.78002C17.715 5.69162 17.8083 5.60716 17.9625 5.46081C17.9625 6.37128 17.9487 7.17862 17.9664 7.98596C17.986 8.85518 18.6775 9.51715 19.529 9.51519C20.3658 9.51323 21.073 8.86107 21.0799 8.01444C21.0975 5.86743 21.0975 3.71944 21.0789 1.57242C21.072 0.756246 20.4041 0.0991778 19.587 0.0932848C17.4517 0.0775702 15.3175 0.0834632 13.1823 0.0923027C12.703 0.094267 12.3032 0.306415 12.0096 0.688477C11.6246 1.18938 11.5519 1.74529 11.818 2.31494C12.1048 2.92978 12.6224 3.22443 13.2933 3.23327C14.0652 3.24407 14.8372 3.23523 15.7084 3.23523C15.5522 3.40122 15.4648 3.49845 15.3725 3.59077C13.4376 5.52564 11.5028 7.4605 9.56792 9.39635C9.35086 9.61341 9.12594 9.82261 8.92263 10.0524C8.52289 10.5042 8.42761 11.0326 8.61815 11.5974C8.80967 12.1661 9.21728 12.5108 9.80854 12.6247H9.80953Z" fill="white"/>
</svg>
